<svg width="16" height="16" viewBox="0 0 16 16" fill="none" xmlns="http://www.w3.org/2000/svg">
<path d="M15.8585 15.062L12.607 11.8345C15.0319 9.02066 14.8941 4.77247 12.2212 2.09663C10.8434 0.689649 8.99711 0 7.17841 0C5.35965 0 3.51344 0.68965 2.10808 2.09649C-0.702694 4.9103 -0.702694 9.43435 2.10808 12.2481C3.48589 13.6276 5.33215 14.3448 7.17841 14.3448C8.83188 14.3448 10.5128 13.7654 11.8354 12.6068L15.087 15.8618C15.1696 15.9448 15.3074 16 15.4453 16C15.5831 16 15.7209 15.9448 15.831 15.8345C16.0515 15.6413 16.0515 15.2828 15.8585 15.0621L15.8585 15.062ZM2.87954 11.4483C1.72219 10.3173 1.11595 8.77249 1.11595 7.17245C1.11595 5.57242 1.74969 4.02765 2.87954 2.86909C4.0369 1.71048 5.55249 1.10359 7.17825 1.10359C8.80402 1.10359 10.3197 1.73801 11.477 2.86909C12.6068 4.0277 13.2406 5.54493 13.2406 7.17245C13.2406 8.79998 12.6068 10.3173 11.477 11.4758C10.3196 12.6069 8.77651 13.2413 7.17825 13.2413C5.58 13.2413 4.03685 12.6069 2.87954 11.4483Z" fill="#6D6E71"/>
</svg>
