<svg width="218" height="83" viewBox="0 0 218 83" fill="none" xmlns="http://www.w3.org/2000/svg">
<g clip-path="url(#clip0_1_4)">
<path d="M57.6583 63.7499H56.4417C56.208 63.7499 56.1061 63.4341 56.2859 63.2792L56.6335 62.9813C56.9331 62.7251 57.3047 62.5881 57.6823 62.5881H58.8988C59.1326 62.5881 59.2344 62.8979 59.0546 63.0588L58.7071 63.3567C58.4074 63.6129 58.0358 63.7499 57.6523 63.7499" fill="#E31F26"/>
<path d="M59.2524 62.0459L58.0358 62.1293C57.8081 62.1413 57.6763 61.8374 57.8501 61.6706L58.1797 61.3489C58.4554 61.0748 58.8209 60.908 59.1985 60.8841L60.4091 60.8007C60.6428 60.7829 60.7686 61.0927 60.5948 61.2595L60.2652 61.5812C59.9836 61.8553 59.624 62.0221 59.2464 62.0519" fill="#E31F26"/>
<path d="M60.7207 60.2407L59.5161 60.4075C59.2884 60.4373 59.1385 60.1454 59.3004 59.9607L59.606 59.6151C59.8637 59.3232 60.2113 59.1325 60.5888 59.0789L61.7934 58.9061C62.0272 58.8763 62.171 59.1683 62.0152 59.347L61.7095 59.6926C61.4518 59.9845 61.1042 60.1751 60.7267 60.2288" fill="#E31F26"/>
<path d="M62.0571 58.3401L60.8645 58.5903C60.6368 58.638 60.469 58.352 60.6188 58.1673L60.8945 57.8039C61.1342 57.4941 61.4638 57.2796 61.8414 57.2021L63.034 56.9519C63.2617 56.9042 63.4295 57.1902 63.2857 57.3809L63.004 57.7443C62.7643 58.0541 62.4347 58.2686 62.0631 58.352" fill="#E31F26"/>
<path d="M63.2557 56.3501L62.0871 56.6838C61.8594 56.7493 61.6736 56.4753 61.8054 56.2727L62.0571 55.8914C62.2729 55.5637 62.5905 55.3313 62.9561 55.2241L64.1247 54.8904C64.3524 54.8249 64.5382 55.099 64.4064 55.3015L64.1547 55.6888C63.9389 56.0165 63.6213 56.2548 63.2557 56.3561" fill="#E31F26"/>
<path d="M64.3165 54.2827L63.1718 54.6938C62.9501 54.7773 62.7463 54.5151 62.8662 54.3066L63.0879 53.9074C63.2797 53.5678 63.5793 53.3056 63.9389 53.1805L65.0836 52.7694C65.3053 52.692 65.5091 52.9482 65.3892 53.1567L65.1615 53.5559C64.9697 53.8955 64.6701 54.1517 64.3105 54.2827" fill="#E31F26"/>
<path d="M65.2274 52.1438L64.1127 52.6383C63.903 52.7337 63.6812 52.4894 63.7771 52.2689L63.9749 51.8578C64.1427 51.5004 64.4243 51.2263 64.7719 51.0714L65.8806 50.5769C66.0964 50.4816 66.3181 50.7258 66.2162 50.9403L66.0185 51.3574C65.8507 51.7089 65.569 51.9889 65.2214 52.1438" fill="#E31F26"/>
<path d="M65.9825 49.9513L64.9038 50.5173C64.7 50.6245 64.4603 50.3981 64.5442 50.1777L64.712 49.7487C64.8558 49.3853 65.1135 49.0874 65.4551 48.9087L66.5279 48.3427C66.7316 48.2354 66.9714 48.4618 66.8875 48.6823L66.7197 49.1112C66.5758 49.4747 66.3181 49.7726 65.9765 49.9513" fill="#E31F26"/>
<path d="M66.5878 47.7052L65.557 48.3486C65.3592 48.4678 65.1075 48.2593 65.1735 48.0329L65.3113 47.592C65.4312 47.2166 65.6709 46.9009 65.9945 46.7042L67.0253 46.0667C67.2231 45.9416 67.4808 46.1561 67.4088 46.3825L67.271 46.8174C67.1571 47.1928 66.9114 47.5086 66.5938 47.7052" fill="#E31F26"/>
<path d="M67.0253 45.4292L66.0424 46.1382C65.8567 46.2753 65.587 46.0846 65.6409 45.8523L65.7488 45.4054C65.8387 45.0241 66.0544 44.6964 66.3661 44.47L67.3489 43.761C67.5347 43.624 67.8044 43.8206 67.7504 44.053L67.6426 44.4998C67.5527 44.8811 67.3369 45.2088 67.0253 45.4352" fill="#E31F26"/>
<path d="M67.313 43.1235L66.384 43.8981C66.2043 44.047 65.9226 43.8742 65.9585 43.6359L66.0305 43.1831C66.0904 42.7958 66.2882 42.4503 66.5818 42.206L67.5167 41.4315C67.6965 41.2825 67.9782 41.4553 67.9362 41.6936L67.8643 42.1464C67.8044 42.5337 67.6066 42.8733 67.313 43.1235Z" fill="#E31F26"/>
<path d="M67.4328 40.8059L66.5578 41.646C66.39 41.8068 66.0964 41.6519 66.1204 41.4136L66.1623 40.9548C66.1983 40.5616 66.3661 40.2041 66.6417 39.942L67.5167 39.1019C67.6845 38.9411 67.9782 39.096 67.9542 39.3343L67.9122 39.793C67.8763 40.1803 67.7085 40.5378 67.4328 40.7999" fill="#E31F26"/>
<path d="M67.3849 38.4823L66.5698 39.3819C66.414 39.5547 66.1084 39.4237 66.1144 39.1853V38.7266C66.1323 38.3334 66.2762 37.9699 66.5279 37.6839L67.3429 36.7843C67.4987 36.6115 67.8044 36.7426 67.7984 36.9869V37.4456C67.7804 37.8388 67.6366 38.2023 67.3849 38.4883" fill="#E31F26"/>
<path d="M67.1811 36.1766L66.432 37.1298C66.2882 37.3145 65.9765 37.2013 65.9645 36.963L65.9406 36.5043C65.9226 36.117 66.0424 35.7357 66.2762 35.4378L67.0253 34.4845C67.1691 34.2998 67.4808 34.413 67.4927 34.6513L67.5167 35.1101C67.5347 35.5033 67.4148 35.8787 67.1811 36.1766Z" fill="#E31F26"/>
<path d="M66.8155 33.8828L66.1323 34.8837C66.0005 35.0744 65.6829 34.985 65.6529 34.7526L65.599 34.2939C65.551 33.9066 65.6409 33.5193 65.8567 33.2036L66.5399 32.2026C66.6717 32.012 66.9893 32.1014 67.0193 32.3337L67.0732 32.7925C67.1212 33.1797 67.0253 33.561 66.8155 33.8768" fill="#E31F26"/>
<path d="M66.2822 31.6247L65.6769 32.6733C65.557 32.8759 65.2334 32.8044 65.1914 32.572L65.1016 32.1192C65.0296 31.7379 65.0956 31.3447 65.2813 31.017L65.8866 29.9684C66.0005 29.7658 66.3301 29.8373 66.3721 30.0697L66.462 30.5225C66.5339 30.9038 66.4679 31.297 66.2822 31.6247Z" fill="#E31F26"/>
<path d="M65.599 29.4024L65.0656 30.4927C64.9637 30.7012 64.6341 30.6536 64.5742 30.4272L64.4543 29.9863C64.3524 29.6109 64.3884 29.2177 64.5562 28.8721L65.0896 27.7878C65.1914 27.5793 65.5211 27.6269 65.581 27.8533L65.7008 28.3002C65.8027 28.6755 65.7608 29.0688 65.599 29.4143" fill="#E31F26"/>
<path d="M64.7599 27.2337L64.3045 28.3538C64.2146 28.5683 63.885 28.5444 63.8071 28.318L63.6572 27.8831C63.5314 27.5137 63.5374 27.1205 63.6812 26.769L64.1367 25.6489C64.2266 25.4344 64.5562 25.4582 64.6341 25.6846L64.7839 26.1196C64.9098 26.489 64.9038 26.8822 64.7599 27.2337Z" fill="#E31F26"/>
<path d="M63.7711 25.1306L63.3936 26.2804C63.3216 26.5009 62.992 26.5009 62.8961 26.2804L62.7164 25.8574C62.5605 25.4999 62.5426 25.1008 62.6624 24.7433L63.04 23.5934C63.1119 23.373 63.4415 23.373 63.5374 23.5934L63.7172 24.0164C63.873 24.3799 63.891 24.7731 63.7711 25.1306Z" fill="#E31F26"/>
<path d="M62.6384 23.1049L62.3448 24.2786C62.2908 24.505 61.9552 24.5288 61.8474 24.3143L61.6376 23.9032C61.4578 23.5517 61.4159 23.1644 61.5058 22.7951L61.7994 21.6213C61.8594 21.3949 62.189 21.3711 62.2968 21.5856L62.5066 21.9967C62.6864 22.3482 62.7283 22.7355 62.6384 23.1049Z" fill="#E31F26"/>
<path d="M61.3619 21.1626L61.1522 22.3542C61.1102 22.5806 60.7806 22.6282 60.6608 22.4257L60.421 22.0324C60.2173 21.6928 60.1454 21.3056 60.2113 20.9362L60.421 19.7446C60.463 19.5182 60.7866 19.4705 60.9125 19.6731L61.1522 20.0663C61.35 20.4059 61.4279 20.7872 61.3619 21.1626Z" fill="#E31F26"/>
<path d="M59.9536 19.3097L59.8277 20.5132C59.8038 20.7455 59.4801 20.8111 59.3423 20.6144L59.0786 20.2391C58.8509 19.9174 58.749 19.5361 58.791 19.1607L58.9168 17.9572C58.9408 17.7248 59.2644 17.6593 59.4022 17.85L59.6659 18.2253C59.8937 18.547 59.9896 18.9284 59.9536 19.3037" fill="#E31F26"/>
<path d="M58.4194 17.558L58.3774 18.7675C58.3715 18.9998 58.0478 19.0892 57.898 18.9045L57.6103 18.547C57.3586 18.2432 57.2328 17.8678 57.2508 17.4925L57.2927 16.283C57.2987 16.0507 57.6163 15.9613 57.7722 16.146L58.0598 16.5035C58.3055 16.8073 58.4374 17.1827 58.4194 17.564" fill="#E31F26"/>
<path d="M56.7713 15.9196L56.8133 17.1291C56.8193 17.3614 56.5076 17.4746 56.3458 17.3018L56.0342 16.9622C55.7645 16.6763 55.6147 16.3128 55.5967 15.9315L55.5548 14.7221C55.5548 14.4897 55.8604 14.3765 56.0222 14.5493L56.3338 14.8889C56.6035 15.1749 56.7534 15.5383 56.7713 15.9196Z" fill="#E31F26"/>
<path d="M55.0034 14.4003L55.1293 15.6038C55.1532 15.8362 54.8536 15.9732 54.6738 15.8064L54.3382 15.4906C54.0505 15.2225 53.8707 14.871 53.8348 14.4956L53.7089 13.2921C53.685 13.0598 53.9906 12.9287 54.1644 13.0896L54.5 13.4053C54.7877 13.6734 54.9675 14.025 55.0034 14.4003Z" fill="#E31F26"/>
<path d="M53.1396 13.0061L53.3494 14.1977C53.3913 14.4301 53.0976 14.579 52.9119 14.4301L52.5523 14.1382C52.2466 13.8879 52.0429 13.5543 51.977 13.1789L51.7672 11.9873C51.7253 11.755 52.0189 11.6001 52.2047 11.755L52.5643 12.0469C52.8699 12.2912 53.0737 12.6308 53.1396 13.0061Z" fill="#E31F26"/>
<path d="M51.1799 11.7431L51.4736 12.9168C51.5335 13.1432 51.2518 13.316 51.054 13.1789L50.6765 12.9168C50.3529 12.6904 50.1251 12.3687 50.0352 11.9993L49.7416 10.8256C49.6877 10.5992 49.9693 10.4264 50.1611 10.5634L50.5387 10.8256C50.8623 11.052 51.09 11.3796 51.1799 11.7431Z" fill="#E31F26"/>
<path d="M49.1363 10.617L49.5139 11.7669C49.5858 11.9874 49.3161 12.184 49.1123 12.0589L48.7168 11.8205C48.3812 11.618 48.1295 11.3141 48.0156 10.9507L47.6381 9.8008C47.5661 9.58036 47.8358 9.38375 48.0396 9.50886L48.4351 9.74718C48.7707 9.94975 49.0224 10.2536 49.1363 10.617Z" fill="#E31F26"/>
<path d="M47.0148 9.63994L47.4703 10.76C47.5601 10.9745 47.3025 11.189 47.0867 11.0818L46.6792 10.8732C46.3256 10.6945 46.0619 10.4026 45.9181 10.051L45.4626 8.93094C45.3727 8.71646 45.6304 8.50197 45.8402 8.60921L46.2537 8.81774C46.6073 8.99648 46.871 9.28842 47.0148 9.63994Z" fill="#E31F26"/>
<path d="M44.8333 8.81177L45.3667 9.89612C45.4686 10.1046 45.2349 10.331 45.0131 10.2417L44.5876 10.057C44.2281 9.90208 43.9344 9.63397 43.7666 9.29437L43.2332 8.21002C43.1313 8.00149 43.3711 7.77509 43.5928 7.86446L44.0183 8.0432C44.3839 8.19811 44.6715 8.46621 44.8393 8.80582" fill="#E31F26"/>
<path d="M42.604 8.13255L43.2152 9.18115C43.3291 9.38372 43.1134 9.628 42.8856 9.55054L42.4482 9.40159C42.0766 9.27648 41.7709 9.02624 41.5792 8.6926L40.9739 7.644C40.854 7.44143 41.0818 7.19716 41.3035 7.27461L41.741 7.42356C42.1125 7.54868 42.4182 7.79891 42.61 8.1266" fill="#E31F26"/>
<path d="M40.3266 7.61422L41.0098 8.61515C41.1417 8.81176 40.9379 9.06796 40.7042 9.00838L40.2607 8.88922C39.8772 8.78793 39.5536 8.55557 39.3438 8.24576L38.6666 7.24483C38.5347 7.05417 38.7385 6.79202 38.9722 6.8516L39.4157 6.97076C39.7933 7.07205 40.1229 7.29845 40.3326 7.61422" fill="#E31F26"/>
<path d="M38.0194 7.25675L38.7685 8.21002C38.9123 8.39472 38.7265 8.66878 38.4928 8.62112L38.0433 8.53175C37.6538 8.4543 37.3182 8.25173 37.0785 7.95383L36.3293 7.00056C36.1855 6.82182 36.3713 6.54776 36.605 6.58946L37.0545 6.67883C37.444 6.75629 37.7796 6.95886 38.0134 7.25675" fill="#E31F26"/>
<path d="M35.6941 7.05418L36.5091 7.95383C36.6649 8.12661 36.5031 8.41259 36.2634 8.3828L35.8079 8.32918C35.4124 8.27556 35.0648 8.09682 34.8071 7.8168L33.9921 6.91715C33.8363 6.74437 33.9981 6.45839 34.2378 6.48818L34.6933 6.54776C35.0828 6.59542 35.4364 6.78012 35.6941 7.06014" fill="#E31F26"/>
<path d="M33.3568 7.01845L34.2318 7.85852C34.3996 8.01938 34.2558 8.31728 34.0161 8.2994L33.5546 8.27557C33.1591 8.2577 32.7995 8.09683 32.5238 7.83469L31.6488 6.99462C31.481 6.83375 31.6249 6.53586 31.8646 6.54777L32.326 6.5716C32.7216 6.59543 33.0871 6.75034 33.3568 7.01249" fill="#E31F26"/>
<path d="M31.0256 7.13758L31.9545 7.91807C32.1343 8.06702 32.0084 8.37087 31.7687 8.37683H31.3072C30.9117 8.38875 30.5401 8.25767 30.2465 8.0134L29.3116 7.23887C29.1318 7.08992 29.2576 6.78606 29.4974 6.78011H29.9588C30.3544 6.76819 30.7259 6.89926 31.0196 7.13758" fill="#E31F26"/>
<path d="M28.7063 7.42953L29.6891 8.13853C29.8749 8.27556 29.773 8.59133 29.5393 8.6092L29.0779 8.64495C28.6883 8.6807 28.2988 8.57346 27.9931 8.35301L27.0103 7.64402C26.8245 7.50699 26.9204 7.19122 27.1601 7.17334L27.6216 7.13759C28.0111 7.1078 28.3947 7.20909 28.7063 7.43549" fill="#E31F26"/>
<path d="M26.417 7.87043L27.4478 8.50793C27.6455 8.63304 27.5676 8.94881 27.3279 8.99052L26.8724 9.06201C26.4829 9.12159 26.0934 9.04414 25.7697 8.84157L24.7389 8.20407C24.5412 8.07896 24.6191 7.76319 24.8588 7.72148L25.3143 7.64998C25.7038 7.59041 26.0934 7.66786 26.417 7.87043Z" fill="#E31F26"/>
<path d="M24.1636 8.47217L25.2364 9.03817C25.4401 9.15137 25.3862 9.4731 25.1525 9.52672L24.703 9.62801C24.3194 9.71738 23.9239 9.66376 23.5883 9.48502L22.5096 8.91901C22.3058 8.81177 22.3597 8.48408 22.5935 8.43642L23.0429 8.32918C23.4265 8.24577 23.822 8.29343 24.1576 8.47217" fill="#E31F26"/>
<path d="M21.9522 9.23479L23.0669 9.72334C23.2767 9.81867 23.2467 10.1464 23.019 10.2179L22.5755 10.3489C22.1979 10.4621 21.8024 10.4383 21.4548 10.2834L20.3461 9.79484C20.1304 9.69951 20.1663 9.37182 20.3941 9.30033L20.8375 9.16925C21.2151 9.05605 21.6106 9.07989 21.9582 9.23479" fill="#E31F26"/>
<path d="M19.8067 10.1404L20.9514 10.5515C21.1731 10.6289 21.1611 10.9626 20.9334 11.046L20.5019 11.2069C20.1363 11.3499 19.7348 11.3499 19.3752 11.2188L18.2306 10.8077C18.0148 10.7302 18.0208 10.3966 18.2486 10.3132L18.6801 10.1523C19.0456 10.0153 19.4472 10.0093 19.8007 10.1344" fill="#E31F26"/>
<path d="M17.7272 11.195L18.8958 11.5286C19.1176 11.5941 19.1355 11.9218 18.9138 12.0231L18.4943 12.2138C18.1347 12.3806 17.7392 12.4104 17.3736 12.3091L16.199 11.9754C15.9772 11.9099 15.9653 11.5822 16.181 11.4809L16.6005 11.2903C16.9601 11.1235 17.3556 11.0937 17.7212 11.195" fill="#E31F26"/>
<path d="M15.7255 12.3925L16.9181 12.6427C17.1459 12.6904 17.1818 13.0181 16.9721 13.1313L16.5705 13.3517C16.2229 13.5424 15.8334 13.602 15.4618 13.5245L14.2692 13.2743C14.0415 13.2266 14.0056 12.8989 14.2153 12.7857L14.6228 12.5653C14.9704 12.3746 15.36 12.315 15.7315 12.3925" fill="#E31F26"/>
<path d="M13.8138 13.7271L15.0184 13.8939C15.2521 13.9297 15.312 14.2514 15.1083 14.3825L14.7187 14.6327C14.3891 14.8472 13.9996 14.9306 13.622 14.877L12.4174 14.7101C12.1837 14.6744 12.1298 14.3527 12.3275 14.2216L12.7171 13.9714C13.0527 13.7569 13.4362 13.6735 13.8138 13.7271Z" fill="#E31F26"/>
<path d="M11.9979 15.1868L13.2085 15.2702C13.4422 15.2821 13.5201 15.6038 13.3283 15.7468L12.9568 16.0209C12.6451 16.2592 12.2616 16.3724 11.884 16.3426L10.6735 16.2592C10.4397 16.2413 10.3558 15.9256 10.5536 15.7826L10.9252 15.5085C11.2368 15.2761 11.6204 15.1629 12.0039 15.1868" fill="#E31F26"/>
<path d="M10.2959 16.7716H11.5125C11.7462 16.7716 11.8481 17.0874 11.6683 17.2423L11.3207 17.5402C11.0211 17.7963 10.6555 17.9334 10.2719 17.9334H9.05536C8.82164 17.9334 8.71377 17.6176 8.89955 17.4627L9.24714 17.1648C9.54679 16.9086 9.91236 16.7656 10.2959 16.7656" fill="#E31F26"/>
<path d="M8.70178 18.4755L9.91835 18.3921C10.1521 18.3743 10.2779 18.6841 10.1041 18.8509L9.77452 19.1726C9.49884 19.4467 9.13327 19.6135 8.75572 19.6373L7.53914 19.7207C7.30542 19.7386 7.17957 19.4288 7.35336 19.262L7.68298 18.9403C7.96464 18.6602 8.32422 18.4994 8.70178 18.4696" fill="#E31F26"/>
<path d="M7.2335 20.2748L8.43809 20.108C8.66582 20.0782 8.81564 20.3702 8.65383 20.5489L8.34819 20.8945C8.0905 21.1864 7.7429 21.3771 7.36535 21.4307L6.16076 21.6035C5.92704 21.6332 5.78321 21.3413 5.93902 21.1566L6.24466 20.811C6.50236 20.5191 6.84995 20.3225 7.2335 20.2748Z" fill="#E31F26"/>
<path d="M5.89708 22.1814L7.08967 21.9311C7.31741 21.8835 7.48521 22.1695 7.34138 22.3601L7.0657 22.7236C6.82598 23.0334 6.49637 23.2479 6.11881 23.3253L4.92622 23.5755C4.69848 23.6232 4.53068 23.3372 4.67451 23.1525L4.95618 22.7891C5.1959 22.4733 5.52551 22.2648 5.90307 22.1814" fill="#E31F26"/>
<path d="M4.69249 24.1713L5.86112 23.8377C6.08286 23.7721 6.27464 24.0462 6.14279 24.2488L5.89109 24.636C5.67534 24.9637 5.35771 25.202 4.99214 25.3033L3.82351 25.637C3.60177 25.7025 3.41599 25.4285 3.54184 25.2259L3.79355 24.8386C4.0093 24.5109 4.32692 24.2726 4.69249 24.1713Z" fill="#E31F26"/>
<path d="M3.63773 26.2387L4.78239 25.8276C4.99813 25.7502 5.20789 26.0064 5.08803 26.2149L4.8603 26.6141C4.66852 26.9596 4.36887 27.2158 4.0093 27.3409L2.86464 27.758C2.6429 27.8355 2.43914 27.5793 2.559 27.3707L2.78673 26.9716C2.97851 26.6319 3.27815 26.3698 3.63773 26.2447" fill="#E31F26"/>
<path d="M2.7268 28.3776L3.8355 27.8891C4.05124 27.7938 4.27298 28.038 4.1711 28.2585L3.97334 28.6755C3.80553 29.0271 3.52386 29.3071 3.17627 29.462L2.06158 29.9565C1.85183 30.0518 1.6241 29.8076 1.73197 29.5931L1.92974 29.176C2.09754 28.8245 2.37921 28.5445 2.7268 28.3896" fill="#E31F26"/>
<path d="M1.97169 30.5702L3.05042 30.0042C3.25418 29.8969 3.4939 30.1233 3.41 30.3438L3.24219 30.7727C3.09836 31.1362 2.84067 31.4341 2.49907 31.6128L1.42633 32.1788C1.22257 32.286 0.982848 32.0596 1.06675 31.8392L1.22856 31.4102C1.37239 31.0468 1.63608 30.7489 1.97169 30.5702Z" fill="#E31F26"/>
<path d="M1.36639 32.8163L2.39718 32.1728C2.59495 32.0537 2.84665 32.2622 2.78073 32.4886L2.64289 32.9295C2.52303 33.3048 2.28332 33.6147 1.9597 33.8172L0.928906 34.4547C0.731139 34.5798 0.479434 34.3654 0.55135 34.139L0.683195 33.704C0.803054 33.3287 1.04277 33.0129 1.36639 32.8163Z" fill="#E31F26"/>
<path d="M0.92292 35.0922L1.90577 34.3832C2.09155 34.2462 2.36123 34.4428 2.30729 34.6752L2.19942 35.122C2.10953 35.5033 1.89378 35.831 1.58215 36.0574L0.5993 36.7664C0.413518 36.9034 0.143835 36.7128 0.197772 36.4804L0.299652 36.0336C0.389546 35.6523 0.605293 35.3246 0.916927 35.0982" fill="#E31F26"/>
<path d="M0.641245 37.398L1.57615 36.6234C1.75594 36.4745 2.03761 36.6473 1.99565 36.8856L1.92374 37.3384C1.86381 37.7256 1.66604 38.0712 1.37838 38.3155L0.443478 39.09C0.263689 39.239 -0.0179805 39.0662 0.0239703 38.8338L0.0958858 38.381C0.155815 37.9938 0.353583 37.6482 0.647238 37.4039" fill="#E31F26"/>
<path d="M0.521389 39.7156L1.39636 38.8755C1.56416 38.7147 1.85782 38.8755 1.83385 39.1079L1.7919 39.5666C1.75594 39.9539 1.58814 40.3114 1.31246 40.5795L0.437487 41.4196C0.269684 41.5804 -0.023971 41.4255 8.01752e-07 41.1872L0.0419515 40.7284C0.0779093 40.3412 0.245712 39.9837 0.521389 39.7216" fill="#E31F26"/>
<path d="M0.56334 42.0332L1.37838 41.1336C1.5342 40.9608 1.83984 41.0919 1.83385 41.3302L1.82186 41.7889C1.81587 42.1762 1.67204 42.5456 1.41434 42.8316L0.599297 43.7312C0.44348 43.904 0.137839 43.767 0.143832 43.5287L0.155818 43.0699C0.161811 42.6767 0.305642 42.3132 0.56334 42.0273" fill="#E31F26"/>
<path d="M0.773094 44.3449L1.52221 43.3916C1.66605 43.2129 1.97768 43.3201 1.98966 43.5585L2.01364 44.0172C2.03162 44.4045 1.91176 44.7858 1.67803 45.0837L0.928911 46.037C0.78508 46.2217 0.473446 46.1085 0.46146 45.8701L0.437488 45.4114C0.419509 45.0241 0.539368 44.6428 0.773094 44.3449Z" fill="#E31F26"/>
<path d="M1.13866 46.6387L1.81587 45.6378C1.94771 45.4412 2.26534 45.5305 2.29531 45.7688L2.34924 46.2276C2.39719 46.6149 2.30729 46.9962 2.09155 47.312L1.40835 48.3129C1.2765 48.5035 0.958876 48.4142 0.928911 48.1759L0.874975 47.723C0.827031 47.3358 0.916925 46.9545 1.13267 46.6387" fill="#E31F26"/>
<path d="M1.66604 48.9027L2.27133 47.8541C2.39119 47.6516 2.71481 47.7231 2.75676 47.9554L2.84666 48.4082C2.91857 48.7895 2.85864 49.1828 2.66088 49.5104L2.05559 50.559C1.93573 50.7616 1.61211 50.6901 1.57016 50.4578L1.48626 50.005C1.41434 49.6236 1.48026 49.2304 1.66604 48.9027Z" fill="#E31F26"/>
<path d="M2.35524 51.1191L2.88861 50.0288C2.99049 49.8202 3.3201 49.8679 3.38003 50.0943L3.49989 50.5411C3.60177 50.9165 3.56581 51.3097 3.39801 51.6553L2.86464 52.7396C2.76276 52.9481 2.43314 52.9005 2.37321 52.6741L2.25335 52.2332C2.15147 51.8519 2.18743 51.4646 2.35524 51.1191Z" fill="#E31F26"/>
<path d="M3.19425 53.2818L3.64971 52.1617C3.73961 51.9472 4.06922 51.9651 4.14713 52.1975L4.29695 52.6324C4.4228 53.0018 4.41681 53.395 4.27298 53.7525L3.81752 54.8726C3.73361 55.0871 3.39801 55.0632 3.3201 54.8368L3.17028 54.4019C3.04442 54.0325 3.05042 53.6393 3.19425 53.2878" fill="#E31F26"/>
<path d="M4.18309 55.3849L4.56065 54.2351C4.63256 54.0146 4.96217 54.0146 5.05806 54.2351L5.23785 54.6581C5.38767 55.0156 5.41165 55.4147 5.29179 55.7722L4.91423 56.9221C4.84231 57.1425 4.50671 57.1425 4.41681 56.9221L4.23703 56.4991C4.08121 56.1356 4.06323 55.7424 4.18309 55.3849Z" fill="#E31F26"/>
<path d="M5.31576 57.4166L5.60942 56.2429C5.66335 56.0165 5.99896 55.9927 6.10683 56.2071L6.31659 56.6182C6.49038 56.9698 6.53833 57.357 6.44843 57.7264L6.15478 58.9001C6.10084 59.1265 5.77123 59.1444 5.65736 58.9359L5.44761 58.5248C5.26782 58.1733 5.22587 57.786 5.31576 57.4166Z" fill="#E31F26"/>
<path d="M6.58627 59.3589L6.79602 58.1673C6.83797 57.9409 7.16159 57.8932 7.28744 58.0958L7.52716 58.489C7.73092 58.8227 7.80284 59.2159 7.73692 59.5853L7.52716 60.7769C7.48521 61.0092 7.1556 61.051 7.03574 60.8484L6.79602 60.4552C6.59825 60.1156 6.52034 59.7342 6.58627 59.3589Z" fill="#E31F26"/>
<path d="M7.99461 61.2118L8.12046 60.0083C8.14443 59.776 8.46805 59.7104 8.60589 59.9011L8.86958 60.2764C9.09731 60.5982 9.1932 60.9795 9.15724 61.3548L9.03139 62.5583C9.00742 62.7907 8.6838 62.8562 8.54596 62.6596L8.28227 62.2843C8.06053 61.9625 7.95865 61.5812 7.99461 61.2059" fill="#E31F26"/>
<path d="M9.52881 62.9634L9.57076 61.754C9.57675 61.5216 9.89438 61.4322 10.0502 61.6169L10.3439 61.9744C10.5896 62.2783 10.7154 62.6536 10.7034 63.029L10.6615 64.2384C10.6555 64.4708 10.3379 64.5602 10.182 64.3755L9.89438 64.018C9.64867 63.7141 9.52282 63.3388 9.5348 62.9634" fill="#E31F26"/>
<path d="M11.1829 64.6019L11.1409 63.3924C11.1409 63.1601 11.4466 63.0469 11.6084 63.2196L11.92 63.5533C12.1897 63.8393 12.3395 64.2027 12.3575 64.584L12.3994 65.7935C12.4054 66.0258 12.0938 66.139 11.932 65.9663L11.6204 65.6326C11.3507 65.3466 11.2008 64.9832 11.1829 64.6019Z" fill="#E31F26"/>
<path d="M12.9508 66.1212L12.8249 64.9176C12.801 64.6853 13.1006 64.5542 13.2804 64.7151L13.616 65.0308C13.9037 65.299 14.0835 65.6505 14.1194 66.0318L14.2453 67.2353C14.2692 67.4676 13.9636 67.5987 13.7898 67.4379L13.4482 67.1221C13.1605 66.854 12.9808 66.5025 12.9448 66.1271" fill="#E31F26"/>
<path d="M14.8146 67.5153L14.6048 66.3237C14.5629 66.0973 14.8566 65.9365 15.0423 66.0914L15.4019 66.3833C15.7076 66.6335 15.9053 66.9672 15.9712 67.3425L16.181 68.5341C16.2229 68.7605 15.9293 68.9154 15.7435 68.7665L15.3839 68.4745C15.0783 68.2243 14.8745 67.8907 14.8086 67.5153" fill="#E31F26"/>
<path d="M16.7743 68.7784L16.4806 67.6047C16.4207 67.3783 16.7084 67.2055 16.9002 67.3425L17.2777 67.6047C17.6013 67.8311 17.8231 68.1528 17.919 68.5222L18.2126 69.6959C18.2665 69.9223 17.9849 70.0951 17.7931 69.9581L17.4155 69.6959C17.0919 69.4695 16.8702 69.1478 16.7743 68.7784Z" fill="#E31F26"/>
<path d="M18.8179 69.9044L18.4403 68.7546C18.3684 68.5341 18.6321 68.3375 18.8419 68.4626L19.2374 68.7009C19.573 68.9035 19.8247 69.2133 19.9386 69.5708L20.3161 70.7207C20.3881 70.9411 20.1184 71.1318 19.9146 71.0126L19.5191 70.7743C19.1835 70.5717 18.9318 70.2619 18.8179 69.9044Z" fill="#E31F26"/>
<path d="M20.9334 70.8815L20.478 69.7614C20.3881 69.547 20.6458 69.3325 20.8555 69.4397L21.263 69.6482C21.6166 69.827 21.8863 70.1189 22.0241 70.4704L22.4796 71.5905C22.5695 71.805 22.3178 72.0195 22.102 71.9123L21.6885 71.7037C21.3349 71.525 21.0713 71.239 20.9274 70.8815" fill="#E31F26"/>
<path d="M23.1149 71.7097L22.5815 70.6253C22.4796 70.4168 22.7133 70.1845 22.9351 70.2798L23.3606 70.4585C23.7261 70.6134 24.0138 70.8815 24.1816 71.2211L24.715 72.3055C24.8169 72.514 24.5771 72.7404 24.3554 72.651L23.9299 72.4723C23.5703 72.3174 23.2767 72.0493 23.1089 71.7097" fill="#E31F26"/>
<path d="M25.3502 72.3829L24.7449 71.3343C24.6251 71.1318 24.8468 70.8875 25.0746 70.9649L25.512 71.1139C25.8836 71.245 26.1892 71.4892 26.381 71.8229L26.9863 72.8715C27.1062 73.0741 26.8844 73.3183 26.6567 73.2409L26.2252 73.0919C25.8536 72.9668 25.548 72.7166 25.3562 72.3829" fill="#E31F26"/>
<path d="M27.6276 72.9013L26.9444 71.9004C26.8125 71.7037 27.0163 71.4475 27.25 71.5071L27.6935 71.6263C28.077 71.7276 28.4006 71.9599 28.6104 72.2757L29.2876 73.2766C29.4194 73.4673 29.2157 73.7294 28.982 73.6699L28.5385 73.5507C28.1549 73.4494 27.8313 73.223 27.6216 72.9072" fill="#E31F26"/>
<path d="M29.9348 73.2647L29.1857 72.3114C29.0419 72.1267 29.2277 71.8527 29.4614 71.9003L29.9169 71.9897C30.3064 72.0672 30.642 72.2697 30.8817 72.5676L31.6309 73.5209C31.7747 73.7056 31.5889 73.9797 31.3552 73.932L30.9057 73.8426C30.5162 73.7652 30.1806 73.5626 29.9408 73.2647" fill="#E31F26"/>
<path d="M32.2601 73.4673L31.4451 72.5677C31.2893 72.3949 31.4511 72.1089 31.6908 72.1387L32.1462 72.1923C32.5358 72.24 32.8894 72.4247 33.1471 72.7047L33.9621 73.6043C34.1179 73.7771 33.9561 74.0631 33.7164 74.0333L33.2609 73.9737C32.8714 73.9261 32.5178 73.7473 32.2601 73.4614" fill="#E31F26"/>
<path d="M34.5974 73.503L33.7224 72.663C33.5546 72.5021 33.6984 72.2042 33.9381 72.2221L34.3996 72.2459C34.7951 72.2638 35.1607 72.4247 35.4304 72.6868L36.3054 73.5269C36.4732 73.6877 36.3293 73.9856 36.0896 73.9737L35.6282 73.9499C35.2326 73.9261 34.8671 73.7711 34.5974 73.509" fill="#E31F26"/>
<path d="M36.9286 73.3839L35.9997 72.6034C35.8199 72.4545 35.9458 72.1506 36.1855 72.1446H36.647C37.0425 72.1327 37.4141 72.2638 37.7077 72.5081L38.6426 73.2826C38.8224 73.4316 38.6966 73.7354 38.4568 73.7414H37.9954C37.5998 73.7533 37.2283 73.6222 36.9346 73.3839" fill="#E31F26"/>
<path d="M39.2479 73.0979L38.2591 72.3889C38.0733 72.2519 38.1752 71.9361 38.4149 71.9182L38.8763 71.8825C39.2659 71.8467 39.6494 71.954 39.9611 72.1744L40.9499 72.8834C41.1357 73.0205 41.0338 73.3362 40.7941 73.3541L40.3326 73.3958C39.9431 73.4256 39.5595 73.3243 39.2479 73.1039" fill="#E31F26"/>
<path d="M41.5372 72.6511L40.5064 72.0076C40.3087 71.8884 40.3866 71.5667 40.6263 71.531L41.0818 71.4595C41.4713 71.3999 41.8608 71.4773 42.1845 71.6799L43.2153 72.3174C43.413 72.4425 43.3351 72.7583 43.0954 72.8L42.6399 72.8715C42.2504 72.9311 41.8608 72.8536 41.5372 72.6511Z" fill="#E31F26"/>
<path d="M43.7906 72.0493L42.7178 71.4833C42.5141 71.3701 42.568 71.0484 42.8017 70.9948L43.2512 70.8935C43.6348 70.8041 44.0303 70.8577 44.3719 71.0365L45.4446 71.6025C45.6484 71.7097 45.5945 72.0374 45.3607 72.091L44.9113 72.1923C44.5277 72.2817 44.1322 72.234 43.7966 72.0493" fill="#E31F26"/>
<path d="M46.002 71.2867L44.8873 70.7922C44.6775 70.6968 44.7075 70.3692 44.9352 70.3036L45.3787 70.1726C45.7563 70.0593 46.1518 70.0832 46.4994 70.2381L47.6081 70.7266C47.8238 70.822 47.7879 71.1497 47.5601 71.2211L47.1167 71.3522C46.7391 71.4654 46.3436 71.4416 45.996 71.2867" fill="#E31F26"/>
<path d="M48.1475 70.3811L47.0028 69.964C46.7811 69.8866 46.793 69.5589 47.0148 69.4695L47.4463 69.3086C47.8178 69.1716 48.2134 69.1656 48.573 69.2967L49.7176 69.7078C49.9393 69.7853 49.9274 70.1189 49.7056 70.2023L49.2741 70.3632C48.9086 70.5002 48.507 70.5062 48.1534 70.3811" fill="#E31F26"/>
<path d="M50.227 69.3265L49.0584 68.9929C48.8367 68.9273 48.8187 68.5996 49.0404 68.4984L49.4599 68.3077C49.8195 68.1409 50.215 68.1111 50.5806 68.2124L51.7492 68.546C51.971 68.6116 51.9889 68.9392 51.7672 69.0405L51.3477 69.2312C50.9941 69.398 50.5986 69.4278 50.227 69.3265Z" fill="#E31F26"/>
<path d="M52.2287 68.129L51.0361 67.8787C50.8083 67.8311 50.7724 67.5034 50.9821 67.3842L51.3837 67.1638C51.7312 66.9731 52.1208 66.9136 52.4983 66.997L53.6909 67.2472C53.9187 67.2949 53.9546 67.6226 53.7449 67.7417L53.3374 67.9622C52.9898 68.1528 52.6002 68.2064 52.2287 68.129Z" fill="#E31F26"/>
<path d="M54.1404 66.7944L52.9358 66.6216C52.7021 66.5918 52.6482 66.2641 52.8459 66.139L53.2355 65.8888C53.5651 65.6743 53.9546 65.5909 54.3322 65.6385L55.5368 65.8054C55.7645 65.8411 55.8244 66.1628 55.6267 66.288L55.2371 66.5382C54.9075 66.7527 54.518 66.8361 54.1404 66.7884" fill="#E31F26"/>
<path d="M55.9503 65.3347L54.7397 65.2513C54.506 65.2334 54.4281 64.9177 54.6199 64.7747L54.9914 64.5006C55.3031 64.2683 55.6866 64.1491 56.0642 64.1789L57.2807 64.2623C57.5145 64.2802 57.5984 64.5959 57.4006 64.7389L57.029 65.013C56.7174 65.2454 56.3338 65.3586 55.9563 65.3347" fill="#E31F26"/>
<path fill-rule="evenodd" clip-rule="evenodd" d="M31.1035 13.6079L32.8834 12.3389L32.1942 10.2536L33.9621 11.5405L35.742 10.2477L35.0588 12.3151L36.8447 13.596L34.6573 13.5901L33.9801 15.6753L33.3149 13.602L31.1035 13.6079Z" fill="#E31F26"/>
<path fill-rule="evenodd" clip-rule="evenodd" d="M21.0653 16.7299L22.2159 14.877L20.7776 13.2147L22.9051 13.733L24.0558 11.8563L24.2176 14.0309L26.363 14.5374L24.3374 15.3596L24.5172 17.5461L23.1029 15.8839L21.0653 16.7299Z" fill="#E31F26"/>
<path fill-rule="evenodd" clip-rule="evenodd" d="M12.9867 23.4325L13.3403 21.2817L11.3746 20.2927L13.5381 19.9591L13.8797 17.7963L14.8625 19.7386L17.038 19.3871L15.4858 20.9183L16.4926 22.8725L14.5449 21.8775L12.9867 23.4325Z" fill="#E31F26"/>
<path fill-rule="evenodd" clip-rule="evenodd" d="M8.10848 32.6971L7.60507 30.5761L5.40565 30.4093L7.28145 29.2832L6.76006 27.1503L8.41412 28.5742L10.2959 27.4184L9.4509 29.4262L11.1289 30.8502L8.9475 30.6655L8.10848 32.6971Z" fill="#E31F26"/>
<path fill-rule="evenodd" clip-rule="evenodd" d="M7.16759 43.1116L5.89109 41.348L3.79355 42.0273L5.08803 40.2756L3.78156 38.5061L5.86112 39.1853L7.1556 37.4099L7.14361 39.5845L9.24714 40.2577L7.16159 40.9191L7.16759 43.1116Z" fill="#E31F26"/>
<path fill-rule="evenodd" clip-rule="evenodd" d="M10.3079 53.0971L8.44409 51.9472L6.77205 53.3771L7.29344 51.268L5.40565 50.1241L7.58709 49.9632L8.09649 47.8303L8.92952 49.8441L11.1289 49.6653L9.4569 51.0714L10.3079 53.0971Z" fill="#E31F26"/>
<path fill-rule="evenodd" clip-rule="evenodd" d="M17.05 61.1224L14.8865 60.7709L13.8917 62.7311L13.5561 60.5803L11.3746 60.2407L13.3343 59.2636L12.9808 57.0949L14.5209 58.6439L16.4866 57.643L15.4858 59.5793L17.05 61.1224Z" fill="#E31F26"/>
<path fill-rule="evenodd" clip-rule="evenodd" d="M26.369 65.9782L24.2355 66.4727L24.0677 68.6592L22.9351 66.8004L20.7896 67.3187L22.2159 65.6684L21.0593 63.8035L23.0789 64.6436L24.5112 62.9754L24.3254 65.1441L26.369 65.9782Z" fill="#E31F26"/>
<path fill-rule="evenodd" clip-rule="evenodd" d="M36.8447 66.9136L35.0708 68.1826L35.754 70.2679L33.9921 68.981L32.2062 70.2738L32.8954 68.2064L31.1035 66.9255L33.2969 66.9314L33.9741 64.8462L34.6393 66.9195L36.8447 66.9136Z" fill="#E31F26"/>
<path fill-rule="evenodd" clip-rule="evenodd" d="M46.8889 63.7916L45.7323 65.6445L47.1706 67.3068L45.0431 66.7885L43.8984 68.6652L43.7366 66.4906L41.5852 65.9841L43.6168 65.1619L43.437 62.9754L44.8513 64.6376L46.8889 63.7916Z" fill="#E31F26"/>
<path fill-rule="evenodd" clip-rule="evenodd" d="M54.9615 57.0889L54.6079 59.2397L56.5796 60.2288L54.4161 60.5564L54.0745 62.7251L53.0917 60.7828L50.9102 61.1344L52.4684 59.5972L51.4616 57.649L53.4033 58.6439L54.9615 57.0889Z" fill="#E31F26"/>
<path fill-rule="evenodd" clip-rule="evenodd" d="M59.8397 47.8243L60.3431 49.9454L62.5426 50.1122L60.6727 51.2382L61.1941 53.3712L59.5341 51.9472L57.6583 53.0971L58.5033 51.0953L56.8193 49.6713L59.0007 49.856L59.8397 47.8243Z" fill="#E31F26"/>
<path fill-rule="evenodd" clip-rule="evenodd" d="M60.7866 37.4099L62.0631 39.1734L64.1607 38.4882L62.8662 40.2458L64.1666 42.0153L62.0871 41.3361L60.7986 43.1116L60.8046 40.9369L58.7071 40.2637L60.7926 39.6024L60.7866 37.4099Z" fill="#E31F26"/>
<path fill-rule="evenodd" clip-rule="evenodd" d="M57.6463 27.4244L59.5101 28.5683L61.1821 27.1443L60.6608 29.2535L62.5485 30.3974L60.3611 30.5582L59.8517 32.6912L59.0247 30.6774L56.8253 30.8561L58.4973 29.4501L57.6463 27.4244Z" fill="#E31F26"/>
<path fill-rule="evenodd" clip-rule="evenodd" d="M50.9042 19.399L53.0617 19.7446L54.0625 17.7904L54.3921 19.9412L56.5736 20.2808L54.6199 21.2579L54.9675 23.4266L53.4273 21.8775L51.4676 22.8785L52.4684 20.9421L50.9042 19.399Z" fill="#E31F26"/>
<path fill-rule="evenodd" clip-rule="evenodd" d="M41.5852 14.5433L43.7127 14.0488L43.8805 11.8563L45.0191 13.7211L47.1646 13.2028L45.7323 14.8531L46.8889 16.718L44.8693 15.8779L43.443 17.5461L43.6228 15.3774L41.5852 14.5433Z" fill="#E31F26"/>
<path d="M33.9801 57.4643C24.4393 57.4643 16.6724 49.7488 16.6724 40.2578C16.6724 30.7668 24.4333 23.0512 33.9801 23.0512C43.5269 23.0512 51.2878 30.7668 51.2878 40.2578C51.2878 49.7488 43.5209 57.4643 33.9801 57.4643ZM33.9801 23.5577C24.715 23.5577 17.1758 31.0527 17.1758 40.2637C17.1758 49.4747 24.715 56.9638 33.9801 56.9638C43.2452 56.9638 50.7784 49.4687 50.7784 40.2637C50.7784 31.0587 43.2392 23.5577 33.9801 23.5577Z" fill="#E31F26"/>
<path d="M33.9801 63.4282C21.1312 63.4282 10.6795 53.0375 10.6795 40.2637C10.6795 27.4899 21.1252 17.0933 33.9801 17.0933C46.835 17.0933 57.2807 27.4839 57.2807 40.2577C57.2807 53.0316 46.829 63.4222 33.9801 63.4222M33.9801 17.6057C21.4188 17.6057 11.1949 27.764 11.1949 40.2518C11.1949 52.7396 21.4129 62.8979 33.9801 62.8979C46.5473 62.8979 56.7593 52.7396 56.7593 40.2518C56.7593 27.764 46.5413 17.6116 33.9801 17.6116" fill="#E31F26"/>
<path d="M29.5813 60.2168L30.2705 60.3777L30.1446 60.8961L28.1789 60.4313L28.3048 59.913L29.0059 60.0798L29.5333 57.8635L30.1146 58.0005L29.5873 60.2168H29.5813Z" fill="#E31F26"/>
<path d="M26.6627 59.9249L27.262 58.4235C27.4418 57.9767 27.3758 57.6788 27.0882 57.5715C26.8005 57.4583 26.5488 57.6132 26.369 58.072L25.7697 59.5734L25.2184 59.3529L25.8057 57.8873C26.1293 57.083 26.6627 56.8506 27.3039 57.1008C27.9212 57.3451 28.137 57.8515 27.8013 58.6857L27.22 60.1394L26.6687 59.9189L26.6627 59.9249ZM25.8956 60.1036C25.8357 60.2526 25.6858 60.33 25.542 60.2764C25.4042 60.2228 25.3442 60.0619 25.4042 59.913C25.4641 59.77 25.6139 59.6866 25.7518 59.7462C25.8956 59.8057 25.9495 59.9666 25.8956 60.1096V60.1036ZM26.6507 60.4015C26.5908 60.5505 26.435 60.6279 26.2911 60.5684C26.1593 60.5147 26.0993 60.3598 26.1593 60.2049C26.2132 60.0619 26.369 59.9845 26.5009 60.0381C26.6447 60.0977 26.7046 60.2586 26.6447 60.4015H26.6507Z" fill="#E31F26"/>
<path d="M24.1337 58.7631C23.9539 58.6975 23.6962 58.5724 23.4205 58.4175C23.0849 58.2209 22.8811 58.0303 22.7972 57.7979C22.7313 57.6013 22.7553 57.3928 22.8871 57.1664C23.0669 56.8565 23.4025 56.7672 23.6362 56.8029V56.791C23.5224 56.6301 23.5344 56.4157 23.6063 56.1595C23.6962 55.8437 23.81 55.4862 23.822 55.3671L24.3494 55.6709C24.3494 55.7603 24.2835 55.9926 24.1756 56.3263C24.0557 56.6659 24.1097 56.8029 24.3134 56.928L24.4693 57.0174L25.0326 56.0641L25.542 56.362L24.1337 58.7512V58.7631ZM24.2415 57.4226L24.0378 57.3034C23.7801 57.1544 23.5523 57.2021 23.4265 57.4166C23.2946 57.637 23.3726 57.8336 23.6003 57.9766C23.7261 58.0481 23.804 58.0779 23.84 58.0958L24.2355 57.4285L24.2415 57.4226Z" fill="#E31F26"/>
<path d="M21.5507 57.2021L21.0892 56.8387L21.8683 55.8675H21.8623C21.7485 55.9092 21.6346 55.945 21.5267 55.9927L20.472 56.3501L19.9026 55.8973L21.3349 55.5041L21.6346 53.675L22.174 54.1099L21.9103 55.4564L22.2698 55.3671L22.8452 54.6521L23.3066 55.0215L21.5387 57.214L21.5507 57.2021Z" fill="#E31F26"/>
<path d="M18.8958 55.528C18.7819 55.6412 18.6081 55.6471 18.5003 55.5399C18.3984 55.4326 18.4044 55.2658 18.5242 55.1526C18.6321 55.0454 18.8059 55.0334 18.9138 55.1347C19.0217 55.2479 19.0097 55.4207 18.9018 55.528H18.8958ZM18.8179 54.813L20.8255 52.829L21.245 53.252L19.2374 55.236L18.8179 54.813Z" fill="#E31F26"/>
<path d="M19.8787 51.7685L18.9737 52.4834L18.1826 54.1636L17.7631 53.6333L18.1287 53.0018C18.2366 52.8111 18.3265 52.6741 18.4284 52.5073C18.2546 52.5669 18.0868 52.6145 17.877 52.6801L17.1818 52.8945L16.7683 52.3762L18.6022 52.0306L19.5251 51.3038L19.8906 51.7685H19.8787Z" fill="#E31F26"/>
<path d="M16.8402 49.4151L17.3316 50.2433L17.907 49.9037L17.3556 48.9742L17.8051 48.7061L18.6621 50.1479L16.2229 51.5778L15.3959 50.1896L15.8454 49.9215L16.3668 50.8033L16.8702 50.5054L16.3788 49.6773L16.8282 49.4151H16.8402Z" fill="#E31F26"/>
<path d="M16.3788 45.4114C16.4687 45.4948 16.6125 45.7033 16.7204 46.0012C17.026 46.8532 16.6065 47.4967 15.8514 47.7648C14.9405 48.0865 14.2213 47.6635 13.9576 46.9187C13.8557 46.6268 13.8377 46.3885 13.8617 46.2693L14.3831 46.2157C14.3711 46.3468 14.3831 46.5196 14.449 46.7162C14.6048 47.1571 15.0184 47.4013 15.6117 47.1928C16.145 47.0021 16.3788 46.591 16.199 46.0965C16.139 45.9297 16.0312 45.7569 15.9473 45.6616L16.3907 45.4114H16.3788Z" fill="#E31F26"/>
<path d="M13.3883 44.7024L14.9884 44.3985C15.4678 44.3091 15.6776 44.0947 15.6177 43.7968C15.5577 43.4929 15.294 43.3678 14.8026 43.4631L13.2025 43.767L13.0886 43.1891L14.6468 42.8912C15.5038 42.7303 15.9892 43.052 16.1211 43.7193C16.2469 44.3687 15.9293 44.8215 15.0483 44.9884L13.4962 45.2862L13.3823 44.7024H13.3883Z" fill="#E31F26"/>
<path d="M14.6468 39.7215C14.3052 39.7394 13.8977 39.7573 13.4842 39.7632V39.7752C13.8437 39.8467 14.2513 39.9539 14.5809 40.0492L15.6896 40.3471V40.8059L14.6048 41.1038C14.2752 41.1932 13.8737 41.2885 13.5081 41.36C13.8917 41.3779 14.3292 41.3838 14.6768 41.3957L15.7495 41.4255V41.9736L12.9268 41.8545L12.9148 41.068L13.8557 40.794C14.1793 40.7046 14.5329 40.6212 14.8625 40.5557V40.5437C14.5329 40.4782 14.1614 40.3948 13.8437 40.3114L12.9028 40.0492L12.8909 39.2747L15.7135 39.084L15.7255 39.662L14.6468 39.7215Z" fill="#E31F26"/>
<path d="M13.1126 37.3086L14.1853 37.4814L14.3472 36.5221L13.2744 36.3493L13.3703 35.7655L16.163 36.2242L16.0671 36.8022L14.8985 36.6115L14.7367 37.5707L15.9053 37.7614L15.8094 38.3453L13.0167 37.8865L13.1126 37.3026V37.3086Z" fill="#E31F26"/>
<path d="M13.8677 33.9841L15.4079 34.5024C15.8694 34.6573 16.157 34.5739 16.2589 34.2879C16.3608 33.996 16.193 33.7577 15.7195 33.5968L14.1793 33.0784L14.3711 32.5184L15.8694 33.0248C16.6964 33.3048 16.9601 33.8232 16.7383 34.4666C16.5226 35.0922 16.0252 35.3305 15.1742 35.0446L13.6819 34.5381L13.8737 33.9781L13.8677 33.9841Z" fill="#E31F26"/>
<path d="M14.8985 31.4043C14.9584 31.2196 15.0663 30.9574 15.2101 30.6774C15.3899 30.3318 15.5697 30.1233 15.7974 30.028C15.9892 29.9505 16.205 29.9684 16.4327 30.0876C16.7503 30.2544 16.8642 30.5761 16.8342 30.8144H16.8462C17.002 30.6953 17.2178 30.6893 17.4755 30.7548C17.7991 30.8263 18.1647 30.9276 18.2845 30.9276L18.0029 31.4638C17.913 31.4638 17.6792 31.4162 17.3316 31.3268C16.9841 31.2255 16.8462 31.2851 16.7323 31.4936L16.6484 31.6485L17.6373 32.155L17.3676 32.6733L14.8925 31.3983L14.8985 31.4043ZM16.2469 31.44L16.3548 31.2315C16.4926 30.9693 16.4327 30.7429 16.211 30.6297C15.9772 30.5106 15.7915 30.594 15.6596 30.8323C15.5937 30.9574 15.5697 31.0349 15.5517 31.0825L16.2469 31.44Z" fill="#E31F26"/>
<path d="M15.9533 28.5623C15.8154 28.473 15.7795 28.3002 15.8634 28.1751C15.9473 28.0499 16.1151 28.0261 16.2469 28.1214C16.3728 28.2049 16.4207 28.3717 16.3368 28.4968C16.2529 28.6279 16.0731 28.6457 15.9473 28.5623H15.9533ZM16.6425 28.3419L18.9917 29.9029L18.6621 30.3974L16.3128 28.8364L16.6425 28.3419Z" fill="#E31F26"/>
<path d="M19.8547 28.7708L18.9737 28.0261L17.1638 27.5852L17.6013 27.0669L18.2905 27.2992C18.5003 27.3707 18.6501 27.4243 18.8359 27.4899C18.74 27.329 18.6561 27.1741 18.5482 26.9835L18.2006 26.346L18.6321 25.8395L19.3333 27.5554L20.2322 28.3121L19.8487 28.7649L19.8547 28.7708Z" fill="#E31F26"/>
<path d="M21.5807 25.3391L20.8615 25.9825L21.311 26.477L22.114 25.7561L22.4616 26.1434L21.2151 27.2575L19.3273 25.1723L20.5319 24.0939L20.8795 24.4811L20.1184 25.1663L20.5079 25.6012L21.2271 24.9578L21.5747 25.3391H21.5807Z" fill="#E31F26"/>
<path d="M22.144 23.5517L21.5627 23.9509L21.257 23.51L22.9231 22.372L23.2287 22.8129L22.6354 23.2181L23.9359 25.1008L23.4445 25.4344L22.15 23.5517H22.144Z" fill="#E31F26"/>
<path d="M23.5463 21.5201C23.4684 21.3771 23.5164 21.2102 23.6482 21.1388C23.7801 21.0673 23.9359 21.1268 24.0138 21.2698C24.0857 21.4009 24.0498 21.5737 23.9179 21.6452C23.7801 21.7167 23.6123 21.6571 23.5403 21.526L23.5463 21.5201ZM24.2595 21.6452L25.6019 24.1237L25.0745 24.4037L23.7321 21.9252L24.2595 21.6452Z" fill="#E31F26"/>
<path d="M26.3211 20.6979L26.8784 20.5132L27.28 21.6869H27.292C27.3099 21.5618 27.3399 21.4486 27.3639 21.3354L27.6276 20.2629L28.3167 20.0306L27.8793 21.4426L29.2696 22.6759L28.6104 22.8963L27.6096 21.955L27.4897 22.3065L27.7894 23.1764L27.232 23.3611L26.3211 20.7038V20.6979Z" fill="#E31F26"/>
<path d="M29.8809 19.685L30.1626 21.2758C30.2465 21.7524 30.4562 21.9669 30.7559 21.9133C31.0615 21.8597 31.1934 21.6035 31.1035 21.1149L30.8218 19.5241L31.4031 19.4229L31.6788 20.9779C31.8286 21.8299 31.499 22.3065 30.8218 22.4257C30.1686 22.5389 29.7191 22.2171 29.5573 21.3354L29.2816 19.7922L29.8689 19.691L29.8809 19.685ZM29.6352 19.2739C29.6052 19.113 29.7011 18.9701 29.8509 18.9462C29.9948 18.9224 30.1266 19.0237 30.1566 19.1845C30.1806 19.3335 30.0967 19.4824 29.9528 19.5063C29.797 19.5301 29.6652 19.4229 29.6412 19.2739H29.6352ZM30.4323 19.1369C30.4023 18.976 30.4922 18.833 30.642 18.8092C30.7858 18.7854 30.9237 18.8866 30.9477 19.0475C30.9716 19.1965 30.8877 19.3454 30.7379 19.3692C30.5821 19.3931 30.4562 19.2858 30.4263 19.1369H30.4323Z" fill="#E31F26"/>
<path d="M32.6197 19.3097L33.219 19.2918L33.2909 21.5677L34.3397 21.532L34.3576 22.0682L32.7156 22.1218L32.6257 19.3097H32.6197Z" fill="#E31F26"/>
<path d="M35.4424 19.8578L34.7412 19.7982L34.7832 19.2679L36.7968 19.4348L36.7548 19.965L36.0357 19.9054L35.8439 22.1754L35.2506 22.1278L35.4424 19.8578Z" fill="#E31F26"/>
<path d="M38.3729 19.7267L38.0014 21.2996C37.8875 21.7703 38.0014 22.0503 38.295 22.1158C38.6007 22.1873 38.8224 21.9967 38.9363 21.5141L39.3078 19.9412L39.8832 20.0723L39.5236 21.6094C39.3258 22.4554 38.8284 22.7593 38.1632 22.6044C37.5159 22.4554 37.2283 21.9848 37.432 21.109L37.7916 19.5837L38.3729 19.7208V19.7267ZM38.313 19.256C38.349 19.0952 38.4928 18.9998 38.6426 19.0356C38.7805 19.0713 38.8644 19.2143 38.8284 19.3752C38.7924 19.5241 38.6546 19.6254 38.5108 19.5956C38.361 19.5599 38.2771 19.4109 38.313 19.256ZM39.1041 19.4407C39.14 19.2799 39.2779 19.1845 39.4277 19.2203C39.5715 19.256 39.6554 19.399 39.6195 19.5599C39.5835 19.7088 39.4457 19.8101 39.3019 19.7744C39.152 19.7386 39.0741 19.5897 39.1101 19.4407H39.1041Z" fill="#E31F26"/>
<path d="M41.0458 20.4953C41.2376 20.537 41.5073 20.6204 41.8009 20.7336C42.1605 20.8766 42.3942 21.0375 42.5081 21.252C42.604 21.4307 42.61 21.6452 42.5081 21.8895C42.3702 22.2231 42.0586 22.3601 41.8189 22.3601V22.372C41.9567 22.515 41.9807 22.7236 41.9447 22.9917C41.9028 23.3194 41.8369 23.6888 41.8429 23.8079L41.2795 23.5815C41.2675 23.4921 41.2975 23.2598 41.3574 22.9083C41.4234 22.5567 41.3574 22.4257 41.1297 22.3303L40.9619 22.2648L40.5484 23.2896L40.003 23.0691L41.0458 20.4953ZM41.1357 21.8358L41.3514 21.9252C41.6271 22.0384 41.8489 21.955 41.9447 21.7286C42.0406 21.4903 41.9447 21.3056 41.687 21.2043C41.5552 21.1507 41.4713 21.1328 41.4293 21.1209L41.1357 21.8418V21.8358Z" fill="#E31F26"/>
<path d="M43.7726 24.8982L44.6296 22.092L45.1749 22.4495L44.7854 23.6172C44.6775 23.9449 44.5637 24.2547 44.4258 24.5824H44.4378C44.6775 24.3441 44.9352 24.1117 45.1869 23.8913L46.1338 23.0751L46.6612 23.4206L44.3659 25.2735L43.7846 24.8922L43.7726 24.8982Z" fill="#E31F26"/>
<path d="M47.4942 26.2804L46.7691 25.6429L46.3256 26.1434L47.1346 26.8584L46.7871 27.2516L45.5285 26.1434L47.4043 24.0403L48.6209 25.1067L48.2733 25.494L47.5062 24.8207L47.1167 25.2557L47.8418 25.8932L47.5002 26.2804H47.4942Z" fill="#E31F26"/>
<path d="M50.0532 27.4601L49.6157 26.906L50.0412 26.5783L51.2878 28.1631L50.8623 28.4908L50.4188 27.9308L48.6089 29.3309L48.2433 28.8602L50.0532 27.4601Z" fill="#E31F26"/>
<path d="M52.1448 29.5156L50.7304 30.314C50.3049 30.5523 50.1791 30.8204 50.3289 31.0885C50.4847 31.3566 50.7724 31.3924 51.2039 31.1481L52.6182 30.3497L52.9119 30.8621L51.5335 31.6366C50.7724 32.0656 50.209 31.9107 49.8734 31.3149C49.5498 30.737 49.6996 30.2067 50.4847 29.7658L51.8571 28.9913L52.1508 29.5096L52.1448 29.5156Z" fill="#E31F26"/>
<path d="M53.3853 31.9941C53.4872 32.1609 53.607 32.4171 53.7209 32.7091C53.8587 33.0725 53.8947 33.3466 53.8108 33.5789C53.7389 33.7696 53.5831 33.9185 53.3434 34.0138C53.0078 34.139 52.6901 34.0079 52.5283 33.8292H52.5163C52.5043 34.0317 52.3665 34.1926 52.1448 34.3475C51.8751 34.5381 51.5575 34.7407 51.4736 34.8301L51.2578 34.2641C51.3177 34.1985 51.5095 34.0556 51.8092 33.8589C52.1148 33.6683 52.1627 33.5313 52.0848 33.3049L52.0189 33.138L50.9761 33.5313L50.7664 32.9831L53.3793 32.0001L53.3853 31.9941ZM52.4564 32.9712L52.5403 33.1917C52.6422 33.4657 52.8579 33.573 53.0857 33.4896C53.3314 33.4002 53.3913 33.1976 53.3014 32.9414C53.2535 32.8044 53.2115 32.7329 53.1875 32.6971L52.4564 32.9712Z" fill="#E31F26"/>
<path d="M54.524 35.3424L51.7852 36.0336L51.6414 35.4616L54.3801 34.7705L54.53 35.3424H54.524ZM54.8236 34.6871C54.9794 34.6454 55.1353 34.7347 55.1712 34.8777C55.2072 35.0207 55.1113 35.1578 54.9555 35.1995C54.8116 35.2352 54.6498 35.1578 54.6139 35.0207C54.5779 34.8718 54.6738 34.7228 54.8236 34.6871Z" fill="#E31F26"/>
<path d="M52.2886 36.6056L54.3861 37.5707H54.4041L54.2423 36.4506L54.7637 36.3792L55.0334 38.2559L54.6678 38.3095L52.6002 37.3682H52.5822L52.762 38.5955L52.2347 38.667L51.947 36.6532L52.2886 36.6056Z" fill="#E31F26"/>
<path d="M53.3434 41.5447C53.685 41.5447 54.0925 41.5447 54.506 41.5447V41.5327C54.1464 41.4434 53.7449 41.3242 53.4153 41.217L52.3186 40.8774L52.3305 40.4127L53.4333 40.1565C53.7689 40.079 54.1704 40.0016 54.5419 39.9479C54.1584 39.9182 53.7209 39.8943 53.3733 39.8645L52.3006 39.793L52.3126 39.2449L55.1353 39.4773L55.1173 40.2637L54.1644 40.4961C53.8348 40.5676 53.4812 40.645 53.1516 40.6927V40.7046C53.4752 40.788 53.8468 40.8833 54.1584 40.9787L55.0933 41.2766L55.0753 42.0451L52.2466 42.1226L52.2586 41.5447L53.3434 41.5327V41.5447Z" fill="#E31F26"/>
<path d="M54.6618 44.4819C54.6618 44.6428 54.6019 44.9526 54.53 45.2386C54.4401 45.5901 54.3502 45.7927 54.1824 45.9476C54.0325 46.0965 53.8168 46.1799 53.5651 46.1204C53.3194 46.0608 53.1276 45.8701 53.0857 45.5544H53.0797C52.9179 45.8225 52.6302 45.9774 52.2766 45.888C52.0309 45.8284 51.8571 45.6735 51.7612 45.4769C51.6473 45.2505 51.6354 44.9228 51.7612 44.4164C51.8331 44.1364 51.905 43.9278 51.959 43.8087L54.6558 44.4819H54.6618ZM52.2526 44.4819C52.2287 44.5356 52.2107 44.6011 52.1867 44.7024C52.1208 44.9645 52.1687 45.2207 52.4564 45.2922C52.7321 45.3637 52.8999 45.1611 52.9718 44.8752L53.0197 44.6785L52.2466 44.4879L52.2526 44.4819ZM53.4692 44.7858L53.4213 44.9764C53.3434 45.2803 53.4392 45.471 53.643 45.5246C53.8528 45.5782 53.9966 45.459 54.0625 45.1969C54.0925 45.0718 54.1045 45.0003 54.1105 44.9467L53.4692 44.7858Z" fill="#E31F26"/>
<path d="M51.7013 47.1392L51.102 46.6864L51.3417 46.1204L53.637 47.9435L53.3374 48.6584L50.4128 48.3188L50.6585 47.735L51.4076 47.8243L51.6953 47.1332L51.7013 47.1392ZM51.8871 47.9316L52.5043 48.015C52.6781 48.0388 52.8879 48.0746 53.0557 48.1044C52.9179 47.9971 52.7321 47.878 52.6002 47.7767L52.1088 47.4013L51.8871 47.9316Z" fill="#E31F26"/>
<path d="M52.5523 50.3088L52.2466 50.8093L51.1799 50.1658V50.1777C51.2338 50.285 51.2878 50.3863 51.3477 50.4875L51.8451 51.4766L51.4676 52.0962L50.8862 50.7378L49.0224 50.6842L49.382 50.0943L50.7604 50.1777L50.6226 49.8322L49.8315 49.3555L50.1371 48.8551L52.5583 50.3088H52.5523Z" fill="#E31F26"/>
<path d="M48.8007 52.1141L48.3632 51.5063L48.7587 51.0357L50.4068 53.4606L49.9034 54.0563L47.2126 52.8648L47.6261 52.3762L48.3093 52.686L48.7947 52.1141H48.8007ZM48.7348 52.9303L49.2981 53.1924C49.4539 53.2639 49.6457 53.3652 49.8015 53.4427C49.6996 53.2997 49.5618 53.1329 49.4599 52.9958L49.1003 52.4894L48.7288 52.9303H48.7348Z" fill="#E31F26"/>
<path d="M46.7811 53.2878L48.6269 55.4148L48.0995 55.8676L47.0088 55.4446C46.6972 55.3194 46.3496 55.1586 46.0499 54.9977H46.0439C46.3196 55.2599 46.5773 55.5399 46.853 55.8556L47.3923 56.4753L46.9788 56.8328L45.133 54.7117L45.6064 54.3066L46.7451 54.7594C47.0627 54.8845 47.4283 55.0454 47.7459 55.2122V55.2003C47.4942 54.9322 47.2305 54.6343 46.9249 54.2887L46.3675 53.6512L46.7811 53.2937V53.2878Z" fill="#E31F26"/>
<path d="M45.978 57.5417L45.4746 57.8635L44.246 55.945L43.3651 56.505L43.0774 56.0522L44.4618 55.1705L45.984 57.5358L45.978 57.5417Z" fill="#E31F26"/>
<path d="M43.2452 59.1206L41.9747 56.6123L42.5081 56.3442L43.7786 58.8525L43.2452 59.1206Z" fill="#E31F26"/>
<path d="M39.212 57.8337C39.3618 57.7086 39.6554 57.506 39.985 57.3868C40.4345 57.226 40.8061 57.2319 41.1177 57.3868C41.4293 57.5358 41.6751 57.8337 41.8129 58.2209C42.1305 59.1027 41.711 59.8177 40.902 60.1096C40.5843 60.2228 40.3147 60.2466 40.1708 60.2228L40.1169 59.7045C40.2727 59.7164 40.4645 59.7045 40.7342 59.6151C41.2016 59.4483 41.4473 59.0372 41.2436 58.4652C41.0458 57.9171 40.6083 57.7145 40.1528 57.8754C40.027 57.923 39.9251 57.9767 39.8951 58.0124L40.0929 58.5665L40.4765 58.4295L40.6443 58.8942L39.7214 59.2219L39.2179 57.8277L39.212 57.8337ZM41.4953 60.6041C41.4533 60.5207 41.3634 60.4492 41.2136 60.5028C41.0578 60.5565 41.0338 60.6637 41.0458 60.765L40.7581 60.8663C40.6623 60.5743 40.7462 60.3122 41.0937 60.1871C41.4593 60.056 41.6811 60.2109 41.7889 60.4969L41.4953 60.6041Z" fill="#E31F26"/>
<path d="M38.4449 60.759L37.8156 58.0243L38.3969 57.8932L39.0262 60.6339L38.4449 60.765V60.759Z" fill="#E31F26"/>
<path d="M33.9801 59.3649C33.5306 59.3649 33.1651 59.7283 33.1651 60.1751C33.1651 60.622 33.5306 60.9854 33.9801 60.9854C34.4296 60.9854 34.7951 60.622 34.7951 60.1751C34.7951 59.7283 34.4296 59.3649 33.9801 59.3649Z" fill="#E31F26"/>
<path fill-rule="evenodd" clip-rule="evenodd" d="M30.3723 29.176L33.9441 25.6429L37.498 29.1939L32.6377 34.0317L31.7327 33.138L35.6821 29.1939L33.9441 27.4244L32.2062 29.1939L33.6025 30.5999L32.7036 31.5234L30.3723 29.176Z" fill="#E31F26"/>
<path fill-rule="evenodd" clip-rule="evenodd" d="M24.9966 34.5918L28.5684 31.0229L33.4707 35.9561L32.5598 36.8498L28.5505 32.8103L26.8065 34.5918L28.2149 35.9978L27.3159 36.9153L24.9966 34.5918Z" fill="#E31F26"/>
<path fill-rule="evenodd" clip-rule="evenodd" d="M39.3977 31.0229L42.9695 34.5918L38.0373 39.4832L37.1384 38.5776L41.1836 34.5679L39.3977 32.8282L37.9894 34.2343L37.0725 33.3346L39.3977 31.0229Z" fill="#E31F26"/>
<path fill-rule="evenodd" clip-rule="evenodd" d="M28.5325 43.3738L24.9607 39.8049L29.8929 34.9135L30.7858 35.8191L26.7466 39.8288L28.5325 41.5685L29.9348 40.1624L30.8578 41.0621L28.5325 43.3738Z" fill="#E31F26"/>
<path fill-rule="evenodd" clip-rule="evenodd" d="M42.8796 39.8228L39.3078 43.3916L34.4116 38.4644L35.3225 37.5707L39.3318 41.6043L41.0698 39.8228L39.6674 38.4168L40.5664 37.4992L42.8796 39.8228Z" fill="#E31F26"/>
<path fill-rule="evenodd" clip-rule="evenodd" d="M31.9185 38.5121L35.3345 35.1101L36.2275 36.0157L32.8234 39.4296L31.9185 38.5121Z" fill="#E31F26"/>
<path fill-rule="evenodd" clip-rule="evenodd" d="M37.8516 36.5817L34.4475 33.1678L35.3525 32.2741L38.7745 35.6761L37.8516 36.5817Z" fill="#E31F26"/>
<path fill-rule="evenodd" clip-rule="evenodd" d="M29.2097 38.4108L30.1326 37.529L33.6984 41.1097V48.861L32.4579 50.1003L31.5529 49.2006L32.4219 48.3188V41.64L29.2097 38.4108Z" fill="#E31F26"/>
<path fill-rule="evenodd" clip-rule="evenodd" d="M35.3824 40.2041L36.2874 41.1097L35.5622 41.8485V48.4201L39.4277 52.257L41.1776 50.4875L39.4277 48.7538L38.1632 50.0466L37.2463 49.1351L39.4337 46.9604L42.9995 50.5173L39.4337 54.0623L34.2977 48.9504V41.3004L35.3824 40.2041Z" fill="#E31F26"/>
<path fill-rule="evenodd" clip-rule="evenodd" d="M24.9966 50.5054L28.5445 46.9664L34.0101 52.3822L35.4843 50.8867L36.3773 51.8042L34.0101 54.1934L28.5385 48.724L26.8065 50.4995L28.5684 52.269L29.9348 50.8867L30.8158 51.8221L28.5505 54.0623L24.9966 50.5054Z" fill="#E31F26"/>
<path d="M141.356 53.9908H140.032V53.115H143.639V53.9908H142.315V57.4405H141.356V53.9908Z" fill="#6D6E71"/>
<path d="M144.305 55.5875V53.115H145.263V55.5637C145.263 56.2668 145.617 56.6302 146.204 56.6302C146.792 56.6302 147.145 56.2787 147.145 55.5935V53.115H148.104V55.5578C148.104 56.8685 147.367 57.512 146.198 57.512C145.03 57.512 144.317 56.8625 144.317 55.5875H144.305ZM145.072 51.989H145.977V52.7754H145.072V51.989ZM146.426 51.989H147.331V52.7754H146.426V51.989Z" fill="#6D6E71"/>
<path d="M149.069 53.115H151.059C151.61 53.115 152.041 53.2699 152.329 53.5559C152.569 53.7942 152.701 54.1398 152.701 54.5449V54.5568C152.701 55.2539 152.323 55.6948 151.766 55.8973L152.827 57.4405H151.706L150.771 56.0582H150.022V57.4405H149.063V53.115H149.069ZM150.999 55.2181C151.466 55.2181 151.73 54.9739 151.73 54.6045V54.5926C151.73 54.1874 151.442 53.9729 150.981 53.9729H150.028V55.2181H150.999Z" fill="#6D6E71"/>
<path d="M153.57 53.115H154.529V55.0037L156.296 53.115H157.453L155.679 54.95L157.531 57.4405H156.38L155.032 55.5994L154.529 56.1178V57.4405H153.57V53.115Z" fill="#6D6E71"/>
<path d="M158.148 53.115H159.107V57.4405H158.148V53.115ZM158.16 51.989H159.095V52.7754H158.16V51.989Z" fill="#6D6E71"/>
<path d="M161.42 55.7365L159.748 53.115H160.869L161.906 54.8487L162.961 53.115H164.045L162.373 55.7186V57.4405H161.414V55.7365H161.42Z" fill="#6D6E71"/>
<path d="M164.651 53.115H167.935V53.961H165.604V54.8368H167.653V55.6829H165.604V56.5885H167.965V57.4345H164.651V53.109V53.115Z" fill="#6D6E71"/>
<path d="M171.698 53.9908H170.374V53.115H173.982V53.9908H172.657V57.4405H171.698V53.9908Z" fill="#6D6E71"/>
<path d="M174.647 55.5875V53.115H175.606V55.5637C175.606 56.2667 175.959 56.6302 176.547 56.6302C177.134 56.6302 177.488 56.2787 177.488 55.5935V53.115H178.446V55.5577C178.446 56.8685 177.709 57.5119 176.541 57.5119C175.372 57.5119 174.659 56.8625 174.659 55.5875H174.647Z" fill="#6D6E71"/>
<path d="M179.411 53.115H181.401C181.952 53.115 182.384 53.2699 182.671 53.5559C182.911 53.7942 183.043 54.1398 183.043 54.5449V54.5568C183.043 55.2539 182.665 55.6948 182.108 55.8973L183.169 57.4405H182.048L181.113 56.0582H180.364V57.4405H179.405V53.115H179.411ZM181.341 55.2181C181.808 55.2181 182.072 54.9739 182.072 54.6045V54.5926C182.072 54.1874 181.785 53.9729 181.323 53.9729H180.37V55.2181H181.341Z" fill="#6D6E71"/>
<path d="M183.954 53.115H184.913V57.4405H183.954V53.115ZM183.966 51.989H184.901V52.7754H183.966V51.989Z" fill="#6D6E71"/>
<path d="M185.872 56.7195L188.263 53.9491H185.944V53.115H189.491V53.8359L187.1 56.6063H189.491V57.4405H185.866V56.7195H185.872Z" fill="#6D6E71"/>
<path d="M190.402 53.115H191.433L192.578 54.9441L193.723 53.115H194.753V57.4405H193.8V54.6164L192.578 56.4633H192.554L191.343 54.6343V57.4405H190.402V53.115Z" fill="#6D6E71"/>
<path d="M141.356 60.6875H140.032V59.8117H143.639V60.6875H142.315V64.1372H141.356V60.6875Z" fill="#6D6E71"/>
<path d="M145.299 59.7819H146.18L148.044 64.1372H147.043L146.648 63.166H144.808L144.412 64.1372H143.436L145.299 59.7819ZM146.306 62.326L145.731 60.9258L145.156 62.326H146.312H146.306Z" fill="#6D6E71"/>
<path d="M148.721 59.8117H149.602L151.64 62.4749V59.8117H152.587V64.1372H151.772L149.662 61.3846V64.1372H148.715V59.8117H148.721Z" fill="#6D6E71"/>
<path d="M153.678 59.8117H154.636V64.1372H153.678V59.8117Z" fill="#6D6E71"/>
<path d="M156.74 60.6875H155.415V59.8117H159.023V60.6875H157.699V64.1372H156.74V60.6875Z" fill="#6D6E71"/>
<path d="M159.802 59.8117H160.761V64.1372H159.802V59.8117Z" fill="#6D6E71"/>
<path d="M161.846 59.8117H162.877L164.021 61.6408L165.166 59.8117H166.197V64.1372H165.244V61.3131L164.021 63.1601H163.997L162.787 61.331V64.1372H161.846V59.8117Z" fill="#6D6E71"/>
<path d="M168.738 59.8117H169.793L170.931 62.8562L172.07 59.8117H173.101L171.339 64.167H170.494L168.738 59.8117Z" fill="#6D6E71"/>
<path d="M173.772 59.8117H177.056V60.6577H174.725V61.5336H176.774V62.3796H174.725V63.2852H177.086V64.1312H173.772V59.8058V59.8117Z" fill="#6D6E71"/>
<path d="M179.615 61.9864V61.9745C179.615 60.7471 180.58 59.7402 181.898 59.7402C182.683 59.7402 183.157 59.9488 183.606 60.336L183.001 61.0569C182.665 60.7769 182.366 60.6161 181.862 60.6161C181.167 60.6161 180.616 61.2297 180.616 61.9625V61.9745C180.616 62.7669 181.161 63.3448 181.934 63.3448C182.282 63.3448 182.594 63.2554 182.833 63.0826V62.463H181.868V61.6408H183.756V63.5176C183.307 63.8929 182.695 64.2027 181.898 64.2027C180.544 64.2027 179.609 63.2554 179.609 61.9804L179.615 61.9864Z" fill="#6D6E71"/>
<path d="M184.679 59.8117H187.963V60.6577H185.632V61.5336H187.682V62.3796H185.632V63.2852H187.993V64.1312H184.679V59.8058V59.8117Z" fill="#6D6E71"/>
<path d="M188.85 59.8117H189.809V63.2733H191.979V64.1372H188.85V59.8117Z" fill="#6D6E71"/>
<path d="M192.74 59.8117H193.699V64.1372H192.74V59.8117ZM192.752 58.6857H193.687V59.4721H192.752V58.6857Z" fill="#6D6E71"/>
<path d="M195.436 64.8819L195.922 64.1729C195.407 64.1014 194.903 63.881 194.49 63.5116L195.053 62.8383C195.442 63.1601 195.856 63.3626 196.353 63.3626C196.743 63.3626 196.983 63.2077 196.983 62.9575V62.9456C196.983 62.7073 196.833 62.5821 196.108 62.3975C195.233 62.177 194.663 61.9327 194.663 61.0748V61.0629C194.663 60.2764 195.299 59.7581 196.186 59.7581C196.821 59.7581 197.36 59.9547 197.804 60.3062L197.306 61.0212C196.923 60.7531 196.539 60.5922 196.174 60.5922C195.808 60.5922 195.616 60.759 195.616 60.9675V60.9795C195.616 61.2654 195.802 61.3548 196.557 61.5455C197.438 61.7719 197.936 62.0876 197.936 62.8443V62.8562C197.936 63.6248 197.414 64.0835 196.641 64.1789L196.222 65.2036L195.431 64.876L195.436 64.8819Z" fill="#6D6E71"/>
<path d="M199.686 60.6875H198.361V59.8117H201.969V60.6875H200.644V64.1372H199.686V60.6875Z" fill="#6D6E71"/>
<path d="M202.748 59.8117H203.707V64.1372H202.748V59.8117ZM202.76 58.6857H203.695V59.4721H202.76V58.6857Z" fill="#6D6E71"/>
<path d="M204.792 59.8117H206.781C207.333 59.8117 207.764 59.9666 208.052 60.2526C208.291 60.4909 208.423 60.8365 208.423 61.2416V61.2535C208.423 61.9506 208.046 62.3915 207.488 62.5941L208.549 64.1372H207.428L206.494 62.7549H205.744V64.1372H204.786V59.8117H204.792ZM206.721 61.9149C207.189 61.9149 207.452 61.6706 207.452 61.3012V61.2893C207.452 60.8841 207.165 60.6697 206.703 60.6697H205.75V61.9149H206.721Z" fill="#6D6E71"/>
<path d="M209.292 59.8117H210.323L211.468 61.6408L212.612 59.8117H213.643V64.1372H212.69V61.3131L211.468 63.1601H211.444L210.233 61.331V64.1372H209.292V59.8117Z" fill="#6D6E71"/>
<path d="M214.686 59.8117H217.97V60.6577H215.639V61.5336H217.688V62.3796H215.639V63.2852H218V64.1312H214.686V59.8058V59.8117Z" fill="#6D6E71"/>
<path d="M141.835 66.4786H142.716L144.58 70.8339H143.579L143.184 69.8627H141.344L140.948 70.8339H139.972L141.835 66.4786ZM142.842 69.0227L142.267 67.6226L141.692 69.0227H142.848H142.842Z" fill="#6D6E71"/>
<path d="M144.82 70.25L145.425 69.5827C145.677 69.8568 145.917 70.0177 146.222 70.0177C146.582 70.0177 146.81 69.8032 146.81 69.3027V66.5144H147.792V69.3444C147.792 69.8568 147.643 70.2381 147.385 70.5003C147.115 70.7684 146.726 70.8994 146.252 70.8994C145.575 70.8994 145.126 70.6016 144.826 70.25H144.82Z" fill="#6D6E71"/>
<path d="M150.1 66.4786H150.981L152.845 70.8339H151.844L151.448 69.8627H149.608L149.213 70.8339H148.236L150.1 66.4786ZM151.107 69.0227L150.531 67.6226L149.956 69.0227H151.113H151.107Z" fill="#6D6E71"/>
<path d="M153.522 66.5084H154.403L156.44 69.1716V66.5084H157.387V70.8339H156.572L154.463 68.0813V70.8339H153.516V66.5084H153.522Z" fill="#6D6E71"/>
<path d="M158.136 70.2083L158.7 69.5351C159.089 69.8568 159.503 70.0594 160 70.0594C160.39 70.0594 160.629 69.9045 160.629 69.6542V69.6423C160.629 69.404 160.48 69.2789 159.754 69.0942C158.879 68.8738 158.31 68.6295 158.31 67.7715V67.7596C158.31 66.9732 158.945 66.4548 159.832 66.4548C160.468 66.4548 161.007 66.6514 161.45 67.003L160.953 67.7179C160.569 67.4498 160.186 67.2889 159.82 67.2889C159.455 67.2889 159.263 67.4558 159.263 67.6643V67.6762C159.263 67.9622 159.449 68.0516 160.204 68.2422C161.085 68.4686 161.582 68.7844 161.582 69.541V69.553C161.582 70.4109 160.923 70.8935 159.982 70.8935C159.323 70.8935 158.658 70.6671 158.136 70.2024V70.2083Z" fill="#6D6E71"/>
<path d="M162.457 66.5084H163.416V70.8339H162.457V66.5084Z" fill="#6D6E71"/>
<path d="M159.533 29.4799H152.395V32.6674H163.632V40.5259L163.572 40.5914C161.325 42.9567 158.286 44.2555 155.014 44.2555C148.524 44.2555 143.244 39.0066 143.244 32.5542C143.244 26.1017 148.524 20.8528 155.014 20.8528C158.25 20.8528 161.265 22.1337 163.506 24.4573C164.345 23.4385 165.124 22.5031 165.562 22.0027C162.853 19.3275 159.125 17.6712 155.014 17.6712C146.756 17.6712 140.038 24.3501 140.038 32.5601C140.038 40.7702 146.756 47.449 155.014 47.449C159.766 47.449 164.003 45.2326 166.748 41.789H166.778V29.4799H159.521H159.533Z" fill="#E31F26"/>
<path d="M160.917 27.621C161.468 26.9418 162.223 26.0243 162.973 25.1127C160.887 22.944 157.986 21.6988 155.014 21.6988C148.991 21.6988 144.089 26.5724 144.089 32.5601C144.089 38.5478 148.991 43.4214 155.014 43.4214C157.963 43.4214 160.707 42.2775 162.775 40.1982V33.5015H152.389V36.689H159.527V38.7623C158.256 39.6798 156.704 40.228 155.014 40.228C150.759 40.228 147.295 36.7843 147.295 32.5542C147.295 28.324 150.759 24.8803 155.014 24.8803C157.381 24.8803 159.497 25.9468 160.911 27.615L160.917 27.621Z" fill="#E31F26"/>
<path d="M142.297 18.2909H108.503V21.4724H142.297V18.2909Z" fill="#E31F26"/>
<path d="M142.297 22.3125H120.321V25.5059H127.68V45.6676H130.892V25.5059H131.731V57.4166H134.938V25.5059H142.297V22.3125Z" fill="#E31F26"/>
<path d="M172.783 37.5529L169.523 45.6021H172.909L174.887 40.7463H184.907L186.885 45.6021H190.313L187.046 37.5529H172.783Z" fill="#E31F26"/>
<path d="M187.969 37.5529L191.223 45.6021H194.711L191.433 37.5529H187.969Z" fill="#E31F26"/>
<path d="M168.582 45.602L179.255 19.2739H175.804L165.13 45.602H168.582Z" fill="#E31F26"/>
<path d="M200.86 33.5491H189.797L179.196 7.51892H175.822L186.351 33.5491H185.428L179.909 19.9353L173.125 36.7128H202.161L200.866 33.5491H200.86ZM177.823 33.5313L179.897 28.4432L181.97 33.5313H177.829H177.823Z" fill="#E31F26"/>
</g>
<path d="M91 0H90V83H91V0Z" fill="#E31F26"/>
<defs>
<clipPath id="clip0_1_4">
<rect width="218" height="83" fill="white"/>
</clipPath>
</defs>
</svg>
